<mxfile host="Electron" modified="2023-08-31T08:37:17.194Z" agent="Mozilla/5.0 (Windows NT 10.0; Win64; x64) AppleWebKit/537.36 (KHTML, like Gecko) draw.io/21.6.8 Chrome/114.0.5735.289 Electron/25.5.0 Safari/537.36" etag="TGALsHOC2Ze7lfYi0hZK" version="21.6.8" type="device">
  <diagram name="Side-1" id="nZ73MyNzDPaUwcm6keHJ">
    <mxGraphModel dx="1418" dy="828" grid="1" gridSize="10" guides="1" tooltips="1" connect="1" arrows="1" fold="1" page="1" pageScale="1" pageWidth="827" pageHeight="1169" math="0" shadow="0">
      <root>
        <mxCell id="0" />
        <mxCell id="1" parent="0" />
        <mxCell id="BJ-IG3TYEazUOUGKsaoj-1" value="order_id" style="rounded=0;whiteSpace=wrap;html=1;fontStyle=4" parent="1" vertex="1">
          <mxGeometry x="70" y="70" width="120" height="40" as="geometry" />
        </mxCell>
        <mxCell id="BJ-IG3TYEazUOUGKsaoj-2" value="ingredient_id" style="rounded=0;whiteSpace=wrap;html=1;" parent="1" vertex="1">
          <mxGeometry x="190" y="70" width="120" height="40" as="geometry" />
        </mxCell>
        <mxCell id="BJ-IG3TYEazUOUGKsaoj-3" value="drink_id" style="rounded=0;whiteSpace=wrap;html=1;" parent="1" vertex="1">
          <mxGeometry x="310" y="70" width="120" height="40" as="geometry" />
        </mxCell>
        <mxCell id="BJ-IG3TYEazUOUGKsaoj-4" value="side_id" style="rounded=0;whiteSpace=wrap;html=1;" parent="1" vertex="1">
          <mxGeometry x="430" y="70" width="120" height="40" as="geometry" />
        </mxCell>
        <mxCell id="BJ-IG3TYEazUOUGKsaoj-5" value="item_id" style="rounded=0;whiteSpace=wrap;html=1;" parent="1" vertex="1">
          <mxGeometry x="550" y="70" width="120" height="40" as="geometry" />
        </mxCell>
        <mxCell id="BJ-IG3TYEazUOUGKsaoj-6" value="Orders" style="text;strokeColor=none;align=center;fillColor=none;html=1;verticalAlign=middle;whiteSpace=wrap;rounded=0;" parent="1" vertex="1">
          <mxGeometry x="60" y="40" width="60" height="30" as="geometry" />
        </mxCell>
        <mxCell id="BJ-IG3TYEazUOUGKsaoj-7" value="meat_id" style="rounded=0;whiteSpace=wrap;html=1;fontStyle=4" parent="1" vertex="1">
          <mxGeometry x="70" y="160" width="120" height="40" as="geometry" />
        </mxCell>
        <mxCell id="BJ-IG3TYEazUOUGKsaoj-8" value="meat_type" style="rounded=0;whiteSpace=wrap;html=1;" parent="1" vertex="1">
          <mxGeometry x="190" y="160" width="120" height="40" as="geometry" />
        </mxCell>
        <mxCell id="BJ-IG3TYEazUOUGKsaoj-12" value="Meat" style="text;strokeColor=none;align=left;fillColor=none;html=1;verticalAlign=middle;whiteSpace=wrap;rounded=0;" parent="1" vertex="1">
          <mxGeometry x="70" y="130" width="60" height="30" as="geometry" />
        </mxCell>
        <mxCell id="BJ-IG3TYEazUOUGKsaoj-15" value="cheese_id" style="rounded=0;whiteSpace=wrap;html=1;fontStyle=4" parent="1" vertex="1">
          <mxGeometry x="70" y="240" width="120" height="40" as="geometry" />
        </mxCell>
        <mxCell id="BJ-IG3TYEazUOUGKsaoj-16" value="cheese_type" style="rounded=0;whiteSpace=wrap;html=1;" parent="1" vertex="1">
          <mxGeometry x="190" y="240" width="120" height="40" as="geometry" />
        </mxCell>
        <mxCell id="BJ-IG3TYEazUOUGKsaoj-17" value="Cheese" style="text;strokeColor=none;align=left;fillColor=none;html=1;verticalAlign=middle;whiteSpace=wrap;rounded=0;" parent="1" vertex="1">
          <mxGeometry x="70" y="210" width="60" height="30" as="geometry" />
        </mxCell>
        <mxCell id="BJ-IG3TYEazUOUGKsaoj-18" value="bread_id" style="rounded=0;whiteSpace=wrap;html=1;fontStyle=4" parent="1" vertex="1">
          <mxGeometry x="70" y="320" width="120" height="40" as="geometry" />
        </mxCell>
        <mxCell id="BJ-IG3TYEazUOUGKsaoj-19" value="bread_type" style="rounded=0;whiteSpace=wrap;html=1;" parent="1" vertex="1">
          <mxGeometry x="190" y="320" width="120" height="40" as="geometry" />
        </mxCell>
        <mxCell id="BJ-IG3TYEazUOUGKsaoj-20" value="Bread" style="text;strokeColor=none;align=left;fillColor=none;html=1;verticalAlign=middle;whiteSpace=wrap;rounded=0;" parent="1" vertex="1">
          <mxGeometry x="70" y="290" width="60" height="30" as="geometry" />
        </mxCell>
        <mxCell id="BJ-IG3TYEazUOUGKsaoj-21" value="dad_id" style="rounded=0;whiteSpace=wrap;html=1;fontStyle=4" parent="1" vertex="1">
          <mxGeometry x="70" y="400" width="120" height="40" as="geometry" />
        </mxCell>
        <mxCell id="BJ-IG3TYEazUOUGKsaoj-22" value="dad_type" style="rounded=0;whiteSpace=wrap;html=1;" parent="1" vertex="1">
          <mxGeometry x="190" y="400" width="120" height="40" as="geometry" />
        </mxCell>
        <mxCell id="BJ-IG3TYEazUOUGKsaoj-23" value="Dressing_And_Dip" style="text;strokeColor=none;align=left;fillColor=none;html=1;verticalAlign=middle;whiteSpace=wrap;rounded=0;" parent="1" vertex="1">
          <mxGeometry x="70" y="370" width="60" height="30" as="geometry" />
        </mxCell>
        <mxCell id="BJ-IG3TYEazUOUGKsaoj-24" value="salad_id" style="rounded=0;whiteSpace=wrap;html=1;fontStyle=4" parent="1" vertex="1">
          <mxGeometry x="70" y="480" width="120" height="40" as="geometry" />
        </mxCell>
        <mxCell id="BJ-IG3TYEazUOUGKsaoj-25" value="salad_type" style="rounded=0;whiteSpace=wrap;html=1;" parent="1" vertex="1">
          <mxGeometry x="190" y="480" width="120" height="40" as="geometry" />
        </mxCell>
        <mxCell id="BJ-IG3TYEazUOUGKsaoj-26" value="Salad" style="text;strokeColor=none;align=left;fillColor=none;html=1;verticalAlign=middle;whiteSpace=wrap;rounded=0;" parent="1" vertex="1">
          <mxGeometry x="70" y="450" width="60" height="30" as="geometry" />
        </mxCell>
        <mxCell id="BJ-IG3TYEazUOUGKsaoj-27" value="fav_id" style="rounded=0;whiteSpace=wrap;html=1;fontStyle=4" parent="1" vertex="1">
          <mxGeometry x="70" y="560" width="120" height="40" as="geometry" />
        </mxCell>
        <mxCell id="BJ-IG3TYEazUOUGKsaoj-28" value="fav_type" style="rounded=0;whiteSpace=wrap;html=1;" parent="1" vertex="1">
          <mxGeometry x="190" y="560" width="120" height="40" as="geometry" />
        </mxCell>
        <mxCell id="BJ-IG3TYEazUOUGKsaoj-29" value="Fruit_And_Veg" style="text;strokeColor=none;align=left;fillColor=none;html=1;verticalAlign=middle;whiteSpace=wrap;rounded=0;" parent="1" vertex="1">
          <mxGeometry x="70" y="530" width="60" height="30" as="geometry" />
        </mxCell>
        <mxCell id="BJ-IG3TYEazUOUGKsaoj-30" value="ingredient_id" style="rounded=0;whiteSpace=wrap;html=1;fontStyle=4" parent="1" vertex="1">
          <mxGeometry x="70" y="640" width="120" height="40" as="geometry" />
        </mxCell>
        <mxCell id="BJ-IG3TYEazUOUGKsaoj-31" value="meat_id" style="rounded=0;whiteSpace=wrap;html=1;" parent="1" vertex="1">
          <mxGeometry x="190" y="640" width="120" height="40" as="geometry" />
        </mxCell>
        <mxCell id="BJ-IG3TYEazUOUGKsaoj-32" value="Ingredients" style="text;strokeColor=none;align=left;fillColor=none;html=1;verticalAlign=middle;whiteSpace=wrap;rounded=0;" parent="1" vertex="1">
          <mxGeometry x="70" y="610" width="60" height="30" as="geometry" />
        </mxCell>
        <mxCell id="BJ-IG3TYEazUOUGKsaoj-33" value="water_id" style="rounded=0;whiteSpace=wrap;html=1;fontStyle=4" parent="1" vertex="1">
          <mxGeometry x="70" y="720" width="120" height="40" as="geometry" />
        </mxCell>
        <mxCell id="BJ-IG3TYEazUOUGKsaoj-34" value="amount" style="rounded=0;whiteSpace=wrap;html=1;" parent="1" vertex="1">
          <mxGeometry x="190" y="720" width="120" height="40" as="geometry" />
        </mxCell>
        <mxCell id="BJ-IG3TYEazUOUGKsaoj-35" value="Water" style="text;strokeColor=none;align=left;fillColor=none;html=1;verticalAlign=middle;whiteSpace=wrap;rounded=0;" parent="1" vertex="1">
          <mxGeometry x="70" y="690" width="60" height="30" as="geometry" />
        </mxCell>
        <mxCell id="BJ-IG3TYEazUOUGKsaoj-36" value="juice_id" style="rounded=0;whiteSpace=wrap;html=1;fontStyle=4" parent="1" vertex="1">
          <mxGeometry x="70" y="800" width="120" height="40" as="geometry" />
        </mxCell>
        <mxCell id="BJ-IG3TYEazUOUGKsaoj-37" value="flavour" style="rounded=0;whiteSpace=wrap;html=1;" parent="1" vertex="1">
          <mxGeometry x="190" y="800" width="120" height="40" as="geometry" />
        </mxCell>
        <mxCell id="BJ-IG3TYEazUOUGKsaoj-38" value="Juice" style="text;strokeColor=none;align=left;fillColor=none;html=1;verticalAlign=middle;whiteSpace=wrap;rounded=0;" parent="1" vertex="1">
          <mxGeometry x="70" y="770" width="60" height="30" as="geometry" />
        </mxCell>
        <mxCell id="BJ-IG3TYEazUOUGKsaoj-42" value="cheese_id" style="rounded=0;whiteSpace=wrap;html=1;" parent="1" vertex="1">
          <mxGeometry x="310" y="640" width="120" height="40" as="geometry" />
        </mxCell>
        <mxCell id="BJ-IG3TYEazUOUGKsaoj-43" value="bread_id" style="rounded=0;whiteSpace=wrap;html=1;" parent="1" vertex="1">
          <mxGeometry x="430" y="640" width="120" height="40" as="geometry" />
        </mxCell>
        <mxCell id="BJ-IG3TYEazUOUGKsaoj-44" value="dad_id" style="rounded=0;whiteSpace=wrap;html=1;" parent="1" vertex="1">
          <mxGeometry x="550" y="640" width="120" height="40" as="geometry" />
        </mxCell>
        <mxCell id="BJ-IG3TYEazUOUGKsaoj-45" value="salad_id" style="rounded=0;whiteSpace=wrap;html=1;" parent="1" vertex="1">
          <mxGeometry x="670" y="640" width="120" height="40" as="geometry" />
        </mxCell>
        <mxCell id="BJ-IG3TYEazUOUGKsaoj-46" value="fav_id" style="rounded=0;whiteSpace=wrap;html=1;" parent="1" vertex="1">
          <mxGeometry x="790" y="640" width="120" height="40" as="geometry" />
        </mxCell>
        <mxCell id="BJ-IG3TYEazUOUGKsaoj-47" value="brand" style="rounded=0;whiteSpace=wrap;html=1;" parent="1" vertex="1">
          <mxGeometry x="310" y="720" width="120" height="40" as="geometry" />
        </mxCell>
        <mxCell id="BJ-IG3TYEazUOUGKsaoj-48" value="litres" style="rounded=0;whiteSpace=wrap;html=1;" parent="1" vertex="1">
          <mxGeometry x="310" y="800" width="120" height="40" as="geometry" />
        </mxCell>
        <mxCell id="BJ-IG3TYEazUOUGKsaoj-56" value="soda_id" style="rounded=0;whiteSpace=wrap;html=1;fontStyle=4" parent="1" vertex="1">
          <mxGeometry x="70" y="880" width="120" height="40" as="geometry" />
        </mxCell>
        <mxCell id="BJ-IG3TYEazUOUGKsaoj-57" value="flavour" style="rounded=0;whiteSpace=wrap;html=1;" parent="1" vertex="1">
          <mxGeometry x="190" y="880" width="120" height="40" as="geometry" />
        </mxCell>
        <mxCell id="BJ-IG3TYEazUOUGKsaoj-58" value="Soda" style="text;strokeColor=none;align=left;fillColor=none;html=1;verticalAlign=middle;whiteSpace=wrap;rounded=0;" parent="1" vertex="1">
          <mxGeometry x="70" y="850" width="60" height="30" as="geometry" />
        </mxCell>
        <mxCell id="BJ-IG3TYEazUOUGKsaoj-59" value="litres" style="rounded=0;whiteSpace=wrap;html=1;" parent="1" vertex="1">
          <mxGeometry x="310" y="880" width="120" height="40" as="geometry" />
        </mxCell>
        <mxCell id="BJ-IG3TYEazUOUGKsaoj-60" value="frappe_id" style="rounded=0;whiteSpace=wrap;html=1;fontStyle=4" parent="1" vertex="1">
          <mxGeometry x="70" y="960" width="120" height="40" as="geometry" />
        </mxCell>
        <mxCell id="BJ-IG3TYEazUOUGKsaoj-61" value="flavour" style="rounded=0;whiteSpace=wrap;html=1;" parent="1" vertex="1">
          <mxGeometry x="190" y="960" width="120" height="40" as="geometry" />
        </mxCell>
        <mxCell id="BJ-IG3TYEazUOUGKsaoj-62" value="Frappe" style="text;strokeColor=none;align=left;fillColor=none;html=1;verticalAlign=middle;whiteSpace=wrap;rounded=0;" parent="1" vertex="1">
          <mxGeometry x="70" y="930" width="60" height="30" as="geometry" />
        </mxCell>
        <mxCell id="BJ-IG3TYEazUOUGKsaoj-63" value="litres" style="rounded=0;whiteSpace=wrap;html=1;" parent="1" vertex="1">
          <mxGeometry x="310" y="960" width="120" height="40" as="geometry" />
        </mxCell>
        <mxCell id="BJ-IG3TYEazUOUGKsaoj-64" value="milkshake_id" style="rounded=0;whiteSpace=wrap;html=1;fontStyle=4" parent="1" vertex="1">
          <mxGeometry x="70" y="1040" width="120" height="40" as="geometry" />
        </mxCell>
        <mxCell id="BJ-IG3TYEazUOUGKsaoj-65" value="flavour" style="rounded=0;whiteSpace=wrap;html=1;" parent="1" vertex="1">
          <mxGeometry x="190" y="1040" width="120" height="40" as="geometry" />
        </mxCell>
        <mxCell id="BJ-IG3TYEazUOUGKsaoj-66" value="Milkshake" style="text;strokeColor=none;align=left;fillColor=none;html=1;verticalAlign=middle;whiteSpace=wrap;rounded=0;" parent="1" vertex="1">
          <mxGeometry x="70" y="1010" width="60" height="30" as="geometry" />
        </mxCell>
        <mxCell id="BJ-IG3TYEazUOUGKsaoj-67" value="litres" style="rounded=0;whiteSpace=wrap;html=1;" parent="1" vertex="1">
          <mxGeometry x="310" y="1040" width="120" height="40" as="geometry" />
        </mxCell>
        <mxCell id="BJ-IG3TYEazUOUGKsaoj-68" value="coffee_id" style="rounded=0;whiteSpace=wrap;html=1;fontStyle=4" parent="1" vertex="1">
          <mxGeometry x="70" y="1120" width="120" height="40" as="geometry" />
        </mxCell>
        <mxCell id="BJ-IG3TYEazUOUGKsaoj-69" value="coffee_type" style="rounded=0;whiteSpace=wrap;html=1;" parent="1" vertex="1">
          <mxGeometry x="190" y="1120" width="120" height="40" as="geometry" />
        </mxCell>
        <mxCell id="BJ-IG3TYEazUOUGKsaoj-70" value="Coffee" style="text;strokeColor=none;align=left;fillColor=none;html=1;verticalAlign=middle;whiteSpace=wrap;rounded=0;" parent="1" vertex="1">
          <mxGeometry x="70" y="1090" width="60" height="30" as="geometry" />
        </mxCell>
        <mxCell id="BJ-IG3TYEazUOUGKsaoj-71" value="litres" style="rounded=0;whiteSpace=wrap;html=1;" parent="1" vertex="1">
          <mxGeometry x="310" y="1120" width="120" height="40" as="geometry" />
        </mxCell>
        <mxCell id="BJ-IG3TYEazUOUGKsaoj-72" value="alcohol_id" style="rounded=0;whiteSpace=wrap;html=1;fontStyle=4" parent="1" vertex="1">
          <mxGeometry x="70" y="1199" width="120" height="40" as="geometry" />
        </mxCell>
        <mxCell id="BJ-IG3TYEazUOUGKsaoj-73" value="name" style="rounded=0;whiteSpace=wrap;html=1;" parent="1" vertex="1">
          <mxGeometry x="190" y="1199" width="120" height="40" as="geometry" />
        </mxCell>
        <mxCell id="BJ-IG3TYEazUOUGKsaoj-74" value="Alcohol" style="text;strokeColor=none;align=left;fillColor=none;html=1;verticalAlign=middle;whiteSpace=wrap;rounded=0;" parent="1" vertex="1">
          <mxGeometry x="70" y="1169" width="60" height="30" as="geometry" />
        </mxCell>
        <mxCell id="BJ-IG3TYEazUOUGKsaoj-75" value="litres" style="rounded=0;whiteSpace=wrap;html=1;" parent="1" vertex="1">
          <mxGeometry x="310" y="1199" width="120" height="40" as="geometry" />
        </mxCell>
        <mxCell id="BJ-IG3TYEazUOUGKsaoj-76" value="drink_id" style="rounded=0;whiteSpace=wrap;html=1;fontStyle=4" parent="1" vertex="1">
          <mxGeometry x="70" y="1280" width="120" height="40" as="geometry" />
        </mxCell>
        <mxCell id="BJ-IG3TYEazUOUGKsaoj-77" value="water_id" style="rounded=0;whiteSpace=wrap;html=1;" parent="1" vertex="1">
          <mxGeometry x="190" y="1280" width="120" height="40" as="geometry" />
        </mxCell>
        <mxCell id="BJ-IG3TYEazUOUGKsaoj-78" value="Drinks" style="text;strokeColor=none;align=left;fillColor=none;html=1;verticalAlign=middle;whiteSpace=wrap;rounded=0;" parent="1" vertex="1">
          <mxGeometry x="70" y="1250" width="60" height="30" as="geometry" />
        </mxCell>
        <mxCell id="BJ-IG3TYEazUOUGKsaoj-79" value="juice_id" style="rounded=0;whiteSpace=wrap;html=1;" parent="1" vertex="1">
          <mxGeometry x="310" y="1280" width="120" height="40" as="geometry" />
        </mxCell>
        <mxCell id="BJ-IG3TYEazUOUGKsaoj-80" value="soda_id" style="rounded=0;whiteSpace=wrap;html=1;" parent="1" vertex="1">
          <mxGeometry x="430" y="1280" width="120" height="40" as="geometry" />
        </mxCell>
        <mxCell id="BJ-IG3TYEazUOUGKsaoj-81" value="frappe_id" style="rounded=0;whiteSpace=wrap;html=1;" parent="1" vertex="1">
          <mxGeometry x="550" y="1280" width="120" height="40" as="geometry" />
        </mxCell>
        <mxCell id="BJ-IG3TYEazUOUGKsaoj-82" value="milkshake_id" style="rounded=0;whiteSpace=wrap;html=1;" parent="1" vertex="1">
          <mxGeometry x="670" y="1280" width="120" height="40" as="geometry" />
        </mxCell>
        <mxCell id="BJ-IG3TYEazUOUGKsaoj-83" value="coffee_id" style="rounded=0;whiteSpace=wrap;html=1;" parent="1" vertex="1">
          <mxGeometry x="790" y="1280" width="120" height="40" as="geometry" />
        </mxCell>
        <mxCell id="BJ-IG3TYEazUOUGKsaoj-84" value="alcohol_id" style="rounded=0;whiteSpace=wrap;html=1;" parent="1" vertex="1">
          <mxGeometry x="910" y="1280" width="120" height="40" as="geometry" />
        </mxCell>
        <mxCell id="BJ-IG3TYEazUOUGKsaoj-89" value="side_id" style="rounded=0;whiteSpace=wrap;html=1;fontStyle=4" parent="1" vertex="1">
          <mxGeometry x="70" y="1360" width="120" height="40" as="geometry" />
        </mxCell>
        <mxCell id="BJ-IG3TYEazUOUGKsaoj-90" value="name" style="rounded=0;whiteSpace=wrap;html=1;" parent="1" vertex="1">
          <mxGeometry x="190" y="1360" width="120" height="40" as="geometry" />
        </mxCell>
        <mxCell id="BJ-IG3TYEazUOUGKsaoj-91" value="Sides" style="text;strokeColor=none;align=left;fillColor=none;html=1;verticalAlign=middle;whiteSpace=wrap;rounded=0;" parent="1" vertex="1">
          <mxGeometry x="70" y="1330" width="60" height="30" as="geometry" />
        </mxCell>
        <mxCell id="BJ-IG3TYEazUOUGKsaoj-92" value="amount" style="rounded=0;whiteSpace=wrap;html=1;" parent="1" vertex="1">
          <mxGeometry x="310" y="1360" width="120" height="40" as="geometry" />
        </mxCell>
        <mxCell id="BJ-IG3TYEazUOUGKsaoj-94" value="item_id" style="rounded=0;whiteSpace=wrap;html=1;fontStyle=4" parent="1" vertex="1">
          <mxGeometry x="70" y="1680" width="120" height="40" as="geometry" />
        </mxCell>
        <mxCell id="BJ-IG3TYEazUOUGKsaoj-95" value="bag_id" style="rounded=0;whiteSpace=wrap;html=1;" parent="1" vertex="1">
          <mxGeometry x="190" y="1680" width="120" height="40" as="geometry" />
        </mxCell>
        <mxCell id="BJ-IG3TYEazUOUGKsaoj-96" value="Service_Items" style="text;strokeColor=none;align=left;fillColor=none;html=1;verticalAlign=middle;whiteSpace=wrap;rounded=0;" parent="1" vertex="1">
          <mxGeometry x="70" y="1650" width="60" height="30" as="geometry" />
        </mxCell>
        <mxCell id="BJ-IG3TYEazUOUGKsaoj-97" value="straws" style="rounded=0;whiteSpace=wrap;html=1;" parent="1" vertex="1">
          <mxGeometry x="310" y="1680" width="120" height="40" as="geometry" />
        </mxCell>
        <mxCell id="BJ-IG3TYEazUOUGKsaoj-98" value="trays" style="rounded=0;whiteSpace=wrap;html=1;" parent="1" vertex="1">
          <mxGeometry x="430" y="1680" width="120" height="40" as="geometry" />
        </mxCell>
        <mxCell id="BJ-IG3TYEazUOUGKsaoj-99" value="cup_id" style="rounded=0;whiteSpace=wrap;html=1;" parent="1" vertex="1">
          <mxGeometry x="550" y="1680" width="120" height="40" as="geometry" />
        </mxCell>
        <mxCell id="BJ-IG3TYEazUOUGKsaoj-100" value="lid_id" style="rounded=0;whiteSpace=wrap;html=1;" parent="1" vertex="1">
          <mxGeometry x="670" y="1680" width="120" height="40" as="geometry" />
        </mxCell>
        <mxCell id="BJ-IG3TYEazUOUGKsaoj-123" value="bag_id" style="rounded=0;whiteSpace=wrap;html=1;fontStyle=4" parent="1" vertex="1">
          <mxGeometry x="70" y="1440" width="120" height="40" as="geometry" />
        </mxCell>
        <mxCell id="BJ-IG3TYEazUOUGKsaoj-124" value="bag_size" style="rounded=0;whiteSpace=wrap;html=1;" parent="1" vertex="1">
          <mxGeometry x="190" y="1440" width="120" height="40" as="geometry" />
        </mxCell>
        <mxCell id="BJ-IG3TYEazUOUGKsaoj-125" value="Bags" style="text;strokeColor=none;align=left;fillColor=none;html=1;verticalAlign=middle;whiteSpace=wrap;rounded=0;" parent="1" vertex="1">
          <mxGeometry x="70" y="1410" width="60" height="30" as="geometry" />
        </mxCell>
        <mxCell id="BJ-IG3TYEazUOUGKsaoj-126" value="cup_id" style="rounded=0;whiteSpace=wrap;html=1;fontStyle=4" parent="1" vertex="1">
          <mxGeometry x="70" y="1520" width="120" height="40" as="geometry" />
        </mxCell>
        <mxCell id="BJ-IG3TYEazUOUGKsaoj-127" value="cup_size" style="rounded=0;whiteSpace=wrap;html=1;" parent="1" vertex="1">
          <mxGeometry x="190" y="1520" width="120" height="40" as="geometry" />
        </mxCell>
        <mxCell id="BJ-IG3TYEazUOUGKsaoj-128" value="Cups" style="text;strokeColor=none;align=left;fillColor=none;html=1;verticalAlign=middle;whiteSpace=wrap;rounded=0;" parent="1" vertex="1">
          <mxGeometry x="70" y="1490" width="60" height="30" as="geometry" />
        </mxCell>
        <mxCell id="BJ-IG3TYEazUOUGKsaoj-129" value="lid_id" style="rounded=0;whiteSpace=wrap;html=1;fontStyle=4" parent="1" vertex="1">
          <mxGeometry x="70" y="1600" width="120" height="40" as="geometry" />
        </mxCell>
        <mxCell id="BJ-IG3TYEazUOUGKsaoj-130" value="lid_size" style="rounded=0;whiteSpace=wrap;html=1;" parent="1" vertex="1">
          <mxGeometry x="190" y="1600" width="120" height="40" as="geometry" />
        </mxCell>
        <mxCell id="BJ-IG3TYEazUOUGKsaoj-131" value="Lids" style="text;strokeColor=none;align=left;fillColor=none;html=1;verticalAlign=middle;whiteSpace=wrap;rounded=0;" parent="1" vertex="1">
          <mxGeometry x="70" y="1570" width="60" height="30" as="geometry" />
        </mxCell>
        <mxCell id="BJ-IG3TYEazUOUGKsaoj-135" value="" style="curved=1;endArrow=classic;html=1;rounded=0;entryX=0.75;entryY=0;entryDx=0;entryDy=0;" parent="1" source="BJ-IG3TYEazUOUGKsaoj-2" target="BJ-IG3TYEazUOUGKsaoj-30" edge="1">
          <mxGeometry width="50" height="50" relative="1" as="geometry">
            <mxPoint x="250" y="160" as="sourcePoint" />
            <mxPoint x="250" y="180.71067811865476" as="targetPoint" />
            <Array as="points">
              <mxPoint x="1090" y="550" />
            </Array>
          </mxGeometry>
        </mxCell>
        <mxCell id="BJ-IG3TYEazUOUGKsaoj-136" value="" style="curved=1;endArrow=classic;html=1;rounded=0;entryX=0.5;entryY=0;entryDx=0;entryDy=0;" parent="1" source="BJ-IG3TYEazUOUGKsaoj-3" target="BJ-IG3TYEazUOUGKsaoj-76" edge="1">
          <mxGeometry width="50" height="50" relative="1" as="geometry">
            <mxPoint x="370" y="160" as="sourcePoint" />
            <mxPoint x="350" y="360" as="targetPoint" />
            <Array as="points">
              <mxPoint x="1600" y="780" />
              <mxPoint x="470" y="1290" />
            </Array>
          </mxGeometry>
        </mxCell>
        <mxCell id="BJ-IG3TYEazUOUGKsaoj-139" value="" style="curved=1;endArrow=classic;html=1;rounded=0;entryX=0.5;entryY=1;entryDx=0;entryDy=0;" parent="1" source="BJ-IG3TYEazUOUGKsaoj-4" target="BJ-IG3TYEazUOUGKsaoj-89" edge="1">
          <mxGeometry width="50" height="50" relative="1" as="geometry">
            <mxPoint x="490" y="160" as="sourcePoint" />
            <mxPoint x="490" y="180.71067811865476" as="targetPoint" />
            <Array as="points">
              <mxPoint x="1590" y="990" />
              <mxPoint x="1140" y="1440" />
            </Array>
          </mxGeometry>
        </mxCell>
        <mxCell id="BJ-IG3TYEazUOUGKsaoj-140" value="" style="curved=1;endArrow=classic;html=1;rounded=0;entryX=0.75;entryY=0;entryDx=0;entryDy=0;" parent="1" source="BJ-IG3TYEazUOUGKsaoj-5" target="BJ-IG3TYEazUOUGKsaoj-94" edge="1">
          <mxGeometry width="50" height="50" relative="1" as="geometry">
            <mxPoint x="610" y="160" as="sourcePoint" />
            <mxPoint x="610" y="180.71067811865476" as="targetPoint" />
            <Array as="points">
              <mxPoint x="1730" y="1680" />
            </Array>
          </mxGeometry>
        </mxCell>
        <mxCell id="BJ-IG3TYEazUOUGKsaoj-141" value="" style="curved=1;endArrow=classic;html=1;rounded=0;entryX=0.5;entryY=1;entryDx=0;entryDy=0;" parent="1" source="BJ-IG3TYEazUOUGKsaoj-31" target="BJ-IG3TYEazUOUGKsaoj-7" edge="1">
          <mxGeometry width="50" height="50" relative="1" as="geometry">
            <mxPoint x="250" y="619.2893218813452" as="sourcePoint" />
            <mxPoint x="250" y="569.2893218813452" as="targetPoint" />
            <Array as="points">
              <mxPoint x="810" y="260" />
            </Array>
          </mxGeometry>
        </mxCell>
        <mxCell id="BJ-IG3TYEazUOUGKsaoj-142" value="" style="curved=1;endArrow=classic;html=1;rounded=0;entryX=0.5;entryY=1;entryDx=0;entryDy=0;" parent="1" source="BJ-IG3TYEazUOUGKsaoj-42" target="BJ-IG3TYEazUOUGKsaoj-15" edge="1">
          <mxGeometry width="50" height="50" relative="1" as="geometry">
            <mxPoint x="370" y="619.2893218813452" as="sourcePoint" />
            <mxPoint x="370" y="569.2893218813452" as="targetPoint" />
            <Array as="points">
              <mxPoint x="570" y="280" />
            </Array>
          </mxGeometry>
        </mxCell>
        <mxCell id="BJ-IG3TYEazUOUGKsaoj-144" value="" style="curved=1;endArrow=classic;html=1;rounded=0;entryX=0.5;entryY=0;entryDx=0;entryDy=0;" parent="1" source="BJ-IG3TYEazUOUGKsaoj-43" target="BJ-IG3TYEazUOUGKsaoj-18" edge="1">
          <mxGeometry width="50" height="50" relative="1" as="geometry">
            <mxPoint x="490" y="619.2893218813452" as="sourcePoint" />
            <mxPoint x="490" y="569.2893218813452" as="targetPoint" />
            <Array as="points">
              <mxPoint x="530" y="230" />
            </Array>
          </mxGeometry>
        </mxCell>
        <mxCell id="BJ-IG3TYEazUOUGKsaoj-145" value="" style="curved=1;endArrow=classic;html=1;rounded=0;entryX=0.75;entryY=0;entryDx=0;entryDy=0;" parent="1" source="BJ-IG3TYEazUOUGKsaoj-44" target="BJ-IG3TYEazUOUGKsaoj-21" edge="1">
          <mxGeometry width="50" height="50" relative="1" as="geometry">
            <mxPoint x="610" y="619.2893218813452" as="sourcePoint" />
            <mxPoint x="610" y="569.2893218813452" as="targetPoint" />
            <Array as="points">
              <mxPoint x="520" y="330" />
            </Array>
          </mxGeometry>
        </mxCell>
        <mxCell id="BJ-IG3TYEazUOUGKsaoj-146" value="" style="curved=1;endArrow=classic;html=1;rounded=0;entryX=0.5;entryY=0;entryDx=0;entryDy=0;" parent="1" source="BJ-IG3TYEazUOUGKsaoj-45" target="BJ-IG3TYEazUOUGKsaoj-24" edge="1">
          <mxGeometry width="50" height="50" relative="1" as="geometry">
            <mxPoint x="730" y="619.2893218813452" as="sourcePoint" />
            <mxPoint x="730" y="569.2893218813452" as="targetPoint" />
            <Array as="points">
              <mxPoint x="490" y="410" />
            </Array>
          </mxGeometry>
        </mxCell>
        <mxCell id="BJ-IG3TYEazUOUGKsaoj-147" value="" style="curved=1;endArrow=classic;html=1;rounded=0;entryX=0.75;entryY=0;entryDx=0;entryDy=0;" parent="1" source="BJ-IG3TYEazUOUGKsaoj-46" target="BJ-IG3TYEazUOUGKsaoj-27" edge="1">
          <mxGeometry width="50" height="50" relative="1" as="geometry">
            <mxPoint x="850" y="619.2893218813452" as="sourcePoint" />
            <mxPoint x="850" y="569.2893218813452" as="targetPoint" />
            <Array as="points">
              <mxPoint x="540" y="490" />
            </Array>
          </mxGeometry>
        </mxCell>
        <mxCell id="BJ-IG3TYEazUOUGKsaoj-148" value="" style="curved=1;endArrow=classic;html=1;rounded=0;entryX=1;entryY=1;entryDx=0;entryDy=0;exitX=0.5;exitY=0;exitDx=0;exitDy=0;" parent="1" source="BJ-IG3TYEazUOUGKsaoj-77" target="BJ-IG3TYEazUOUGKsaoj-35" edge="1">
          <mxGeometry width="50" height="50" relative="1" as="geometry">
            <mxPoint x="250" y="1259.2893218813451" as="sourcePoint" />
            <mxPoint x="250" y="1209.2893218813451" as="targetPoint" />
            <Array as="points">
              <mxPoint x="480" y="1290" />
              <mxPoint x="1080" y="600" />
            </Array>
          </mxGeometry>
        </mxCell>
        <mxCell id="BJ-IG3TYEazUOUGKsaoj-149" value="" style="curved=1;endArrow=classic;html=1;rounded=0;entryX=0.5;entryY=0;entryDx=0;entryDy=0;" parent="1" source="BJ-IG3TYEazUOUGKsaoj-79" target="BJ-IG3TYEazUOUGKsaoj-36" edge="1">
          <mxGeometry width="50" height="50" relative="1" as="geometry">
            <mxPoint x="370" y="1259.2893218813451" as="sourcePoint" />
            <mxPoint x="370" y="1209.2893218813451" as="targetPoint" />
            <Array as="points">
              <mxPoint x="1110" y="720" />
            </Array>
          </mxGeometry>
        </mxCell>
        <mxCell id="BJ-IG3TYEazUOUGKsaoj-150" value="" style="curved=1;endArrow=classic;html=1;rounded=0;entryX=0.75;entryY=0;entryDx=0;entryDy=0;" parent="1" source="BJ-IG3TYEazUOUGKsaoj-80" target="BJ-IG3TYEazUOUGKsaoj-56" edge="1">
          <mxGeometry width="50" height="50" relative="1" as="geometry">
            <mxPoint x="490" y="1259.2893218813451" as="sourcePoint" />
            <mxPoint x="490" y="1209.2893218813451" as="targetPoint" />
            <Array as="points">
              <mxPoint x="720" y="750" />
            </Array>
          </mxGeometry>
        </mxCell>
        <mxCell id="BJ-IG3TYEazUOUGKsaoj-151" value="" style="curved=1;endArrow=classic;html=1;rounded=0;entryX=0.75;entryY=0;entryDx=0;entryDy=0;" parent="1" source="BJ-IG3TYEazUOUGKsaoj-81" target="BJ-IG3TYEazUOUGKsaoj-60" edge="1">
          <mxGeometry width="50" height="50" relative="1" as="geometry">
            <mxPoint x="610" y="1259.2893218813451" as="sourcePoint" />
            <mxPoint x="610" y="1209.2893218813451" as="targetPoint" />
            <Array as="points">
              <mxPoint x="650" y="860" />
            </Array>
          </mxGeometry>
        </mxCell>
        <mxCell id="BJ-IG3TYEazUOUGKsaoj-152" value="" style="curved=1;endArrow=classic;html=1;rounded=0;entryX=0.75;entryY=0;entryDx=0;entryDy=0;" parent="1" source="BJ-IG3TYEazUOUGKsaoj-82" target="BJ-IG3TYEazUOUGKsaoj-64" edge="1">
          <mxGeometry width="50" height="50" relative="1" as="geometry">
            <mxPoint x="730" y="1259.2893218813451" as="sourcePoint" />
            <mxPoint x="730" y="1209.2893218813451" as="targetPoint" />
            <Array as="points">
              <mxPoint x="640" y="930" />
            </Array>
          </mxGeometry>
        </mxCell>
        <mxCell id="BJ-IG3TYEazUOUGKsaoj-153" value="" style="curved=1;endArrow=classic;html=1;rounded=0;entryX=0.75;entryY=0;entryDx=0;entryDy=0;" parent="1" source="BJ-IG3TYEazUOUGKsaoj-83" target="BJ-IG3TYEazUOUGKsaoj-68" edge="1">
          <mxGeometry width="50" height="50" relative="1" as="geometry">
            <mxPoint x="850" y="1259.2893218813451" as="sourcePoint" />
            <mxPoint x="850" y="1209.2893218813451" as="targetPoint" />
            <Array as="points">
              <mxPoint x="640" y="1060" />
            </Array>
          </mxGeometry>
        </mxCell>
        <mxCell id="BJ-IG3TYEazUOUGKsaoj-154" value="" style="curved=1;endArrow=classic;html=1;rounded=0;entryX=0.75;entryY=0;entryDx=0;entryDy=0;" parent="1" source="BJ-IG3TYEazUOUGKsaoj-84" target="BJ-IG3TYEazUOUGKsaoj-72" edge="1">
          <mxGeometry width="50" height="50" relative="1" as="geometry">
            <mxPoint x="970" y="1259.2893218813451" as="sourcePoint" />
            <mxPoint x="970" y="1209.2893218813451" as="targetPoint" />
            <Array as="points">
              <mxPoint x="590" y="1140" />
            </Array>
          </mxGeometry>
        </mxCell>
        <mxCell id="BJ-IG3TYEazUOUGKsaoj-155" value="" style="curved=1;endArrow=classic;html=1;rounded=0;entryX=0.75;entryY=0;entryDx=0;entryDy=0;" parent="1" source="BJ-IG3TYEazUOUGKsaoj-95" target="BJ-IG3TYEazUOUGKsaoj-123" edge="1">
          <mxGeometry width="50" height="50" relative="1" as="geometry">
            <mxPoint x="250" y="1659.2893218813451" as="sourcePoint" />
            <mxPoint x="250" y="1609.2893218813451" as="targetPoint" />
            <Array as="points">
              <mxPoint x="680" y="1360" />
            </Array>
          </mxGeometry>
        </mxCell>
        <mxCell id="BJ-IG3TYEazUOUGKsaoj-157" value="" style="curved=1;endArrow=classic;html=1;rounded=0;entryX=0.75;entryY=0;entryDx=0;entryDy=0;" parent="1" source="BJ-IG3TYEazUOUGKsaoj-99" target="BJ-IG3TYEazUOUGKsaoj-126" edge="1">
          <mxGeometry width="50" height="50" relative="1" as="geometry">
            <mxPoint x="610" y="1659.2893218813451" as="sourcePoint" />
            <mxPoint x="610" y="1609.2893218813451" as="targetPoint" />
            <Array as="points">
              <mxPoint x="450" y="1460" />
            </Array>
          </mxGeometry>
        </mxCell>
        <mxCell id="BJ-IG3TYEazUOUGKsaoj-158" value="" style="curved=1;endArrow=classic;html=1;rounded=0;entryX=0.75;entryY=0;entryDx=0;entryDy=0;" parent="1" source="BJ-IG3TYEazUOUGKsaoj-100" target="BJ-IG3TYEazUOUGKsaoj-129" edge="1">
          <mxGeometry width="50" height="50" relative="1" as="geometry">
            <mxPoint x="730" y="1659.2893218813451" as="sourcePoint" />
            <mxPoint x="730" y="1609.2893218813451" as="targetPoint" />
            <Array as="points">
              <mxPoint x="470" y="1530" />
            </Array>
          </mxGeometry>
        </mxCell>
      </root>
    </mxGraphModel>
  </diagram>
</mxfile>
